<?xml version="1.0" encoding="UTF-8" standalone="no"?>
<svg
   xmlns:dc="http://purl.org/dc/elements/1.1/"
   xmlns:cc="http://creativecommons.org/ns#"
   xmlns:rdf="http://www.w3.org/1999/02/22-rdf-syntax-ns#"
   xmlns:svg="http://www.w3.org/2000/svg"
   xmlns="http://www.w3.org/2000/svg"
   xmlns:sodipodi="http://sodipodi.sourceforge.net/DTD/sodipodi-0.dtd"
   xmlns:inkscape="http://www.inkscape.org/namespaces/inkscape"
   width="60"
   height="60"
   viewBox="0 0 15.875 15.875"
   version="1.1"
   id="svg8"
   inkscape:version="1.0.2 (e86c870879, 2021-01-15)"
   sodipodi:docname="terminal_icons_base.svg">
  <defs
     id="defs2" />
  <sodipodi:namedview
     id="base"
     pagecolor="#ffffff"
     bordercolor="#666666"
     borderopacity="1.0"
     inkscape:pageopacity="0.0"
     inkscape:pageshadow="2"
     inkscape:zoom="9.0273966"
     inkscape:cx="55.725645"
     inkscape:cy="28.555118"
     inkscape:document-units="px"
     inkscape:current-layer="layer1"
     inkscape:document-rotation="0"
     showgrid="false"
     inkscape:window-width="1920"
     inkscape:window-height="1020"
     inkscape:window-x="0"
     inkscape:window-y="32"
     inkscape:window-maximized="1"
     units="px"
     inkscape:pagecheckerboard="true"
     inkscape:showpageshadow="false"
     showguides="false"
     inkscape:guide-bbox="true">
    <inkscape:grid
       type="xygrid"
       id="grid851"
       spacingx="1.3229167"
       spacingy="2.6458333"
       empspacing="2" />
    <sodipodi:guide
       position="0,10.583333"
       orientation="0,-1"
       id="guide853" />
    <sodipodi:guide
       position="2.6458334,5.2916668"
       orientation="0,-1"
       id="guide855" />
    <sodipodi:guide
       position="2.6458334,7.9375001"
       orientation="1,0"
       id="guide857" />
    <sodipodi:guide
       position="5.2916668,7.9375001"
       orientation="1,0"
       id="guide859" />
    <sodipodi:guide
       position="7.9375002,7.9375001"
       orientation="1,0"
       id="guide861" />
    <sodipodi:guide
       position="10.583334,5.2916668"
       orientation="1,0"
       id="guide863" />
    <sodipodi:guide
       position="13.229167,7.9375001"
       orientation="1,0"
       id="guide865" />
  </sodipodi:namedview>
  <metadata
     id="metadata5">
    <rdf:RDF>
      <cc:Work
         rdf:about="">
        <dc:format>image/svg+xml</dc:format>
        <dc:type
           rdf:resource="http://purl.org/dc/dcmitype/StillImage" />
        <dc:title></dc:title>
      </cc:Work>
    </rdf:RDF>
  </metadata>
  <g
     inkscape:label="Layer 1"
     inkscape:groupmode="layer"
     id="layer1">
    <path
       id="rect1059"
       style="fill:#4a78be;fill-opacity:1;stroke-width:5.66929;stroke-linecap:round"
       d="M 20 10 L 20 20 L 10 20 L 10 40 L 20 40 L 20 30 L 40 30 L 40 10 L 20 10 z "
       transform="scale(0.26458333)" />
    <path
       id="path1064"
       style="fill:#ffe27a;fill-opacity:1;stroke-width:1.5;stroke-linecap:round"
       d="m 10.583334,13.229166 v -2.645833 h 2.645833 V 5.2916666 H 10.583334 V 7.9374999 H 5.291667 v 5.2916661 z" />
    <path
       id="rect1068"
       style="fill:#ffffff;fill-opacity:1;stroke-width:5.66929;stroke-linecap:round"
       d="M 15 0 L 15 10 L 5 10 L 5 20 L 0 20 L 0 40 L 5 40 L 5 50 L 15 50 L 15 60 L 45 60 L 45 50 L 55 50 L 55 40 L 60 40 L 60 20 L 55 20 L 55 10 L 45 10 L 45 0 L 15 0 z M 20 10 L 40 10 L 40 20 L 50 20 L 50 40 L 40 40 L 40 50 L 20 50 L 20 40 L 10 40 L 10 20 L 20 20 L 20 10 z "
       transform="scale(0.26458333)" />
  </g>
</svg>
