<?xml version="1.0" encoding="UTF-8" standalone="no"?>
<!-- Created with Inkscape (http://www.inkscape.org/) -->

<svg
   xmlns:dc="http://purl.org/dc/elements/1.1/"
   xmlns:cc="http://creativecommons.org/ns#"
   xmlns:rdf="http://www.w3.org/1999/02/22-rdf-syntax-ns#"
   xmlns:svg="http://www.w3.org/2000/svg"
   xmlns="http://www.w3.org/2000/svg"
   xmlns:xlink="http://www.w3.org/1999/xlink"
   xmlns:sodipodi="http://sodipodi.sourceforge.net/DTD/sodipodi-0.dtd"
   xmlns:inkscape="http://www.inkscape.org/namespaces/inkscape"
   width="100"
   height="100"
   viewBox="0 0 26.458333 26.458334"
   version="1.1"
   id="svg8"
   inkscape:version="0.92.4 (5da689c313, 2019-01-14)"
   sodipodi:docname="python.svg">
  <defs
     id="defs2">
    <linearGradient
       inkscape:collect="always"
       id="linearGradient938">
      <stop
         style="stop-color:#5f8dd3;stop-opacity:1;"
         offset="0"
         id="stop934" />
      <stop
         style="stop-color:#2c5aa0;stop-opacity:1"
         offset="1"
         id="stop936" />
    </linearGradient>
    <linearGradient
       inkscape:collect="always"
       id="linearGradient930">
      <stop
         style="stop-color:#ffe680;stop-opacity:1;"
         offset="0"
         id="stop926" />
      <stop
         style="stop-color:#ffb22a;stop-opacity:1"
         offset="1"
         id="stop928" />
    </linearGradient>
    <linearGradient
       inkscape:collect="always"
       xlink:href="#linearGradient930"
       id="linearGradient932"
       x1="13.758333"
       y1="286.41666"
       x2="13.758333"
       y2="294.88333"
       gradientUnits="userSpaceOnUse"
       gradientTransform="matrix(0.6722338,0,0,0.6722338,4.420586,93.006063)" />
    <linearGradient
       inkscape:collect="always"
       xlink:href="#linearGradient938"
       id="linearGradient940"
       x1="13.758333"
       y1="275.83331"
       x2="13.758333"
       y2="289.59164"
       gradientUnits="userSpaceOnUse"
       gradientTransform="matrix(0.6722338,0,0,0.6722338,4.420586,93.006063)" />
    <filter
       inkscape:collect="always"
       style="color-interpolation-filters:sRGB"
       id="filter987"
       x="-0.061428579"
       width="1.1228572"
       y="-0.058636356"
       height="1.1172727">
      <feGaussianBlur
         inkscape:collect="always"
         stdDeviation="1.8812502"
         id="feGaussianBlur989" />
    </filter>
  </defs>
  <sodipodi:namedview
     id="base"
     pagecolor="#ffffff"
     bordercolor="#666666"
     borderopacity="1.0"
     inkscape:pageopacity="0.0"
     inkscape:pageshadow="2"
     inkscape:zoom="14.849242"
     inkscape:cx="50"
     inkscape:cy="50"
     inkscape:document-units="px"
     inkscape:current-layer="layer1"
     showgrid="true"
     units="px"
     inkscape:pagecheckerboard="true"
     inkscape:showpageshadow="false"
     inkscape:snap-global="false"
     inkscape:snap-bbox="true"
     inkscape:snap-bbox-midpoints="true"
     inkscape:window-width="1358"
     inkscape:window-height="720"
     inkscape:window-x="0"
     inkscape:window-y="26"
     inkscape:window-maximized="1">
    <inkscape:grid
       type="xygrid"
       id="grid815"
       empspacing="4" />
  </sodipodi:namedview>
  <metadata
     id="metadata5">
    <rdf:RDF>
      <cc:Work
         rdf:about="">
        <dc:format>image/svg+xml</dc:format>
        <dc:type
           rdf:resource="http://purl.org/dc/dcmitype/StillImage" />
        <dc:title />
      </cc:Work>
    </rdf:RDF>
  </metadata>
  <g
     inkscape:label="Layer 1"
     inkscape:groupmode="layer"
     id="layer1"
     transform="translate(0,-270.54165)">
    <path
       style="opacity:1;fill:#1a1a1a;fill-opacity:1;stroke:none;stroke-width:1.99999988;stroke-opacity:1;filter:url(#filter987)"
       d="m 50.5,11.5 c -9,0 -18,2.499987 -18,7.5 v 11 h 18 v 2 h -29 c -11,0 -11,36 0,36 h 8 V 57 c 0,-3 4.999999,-8 8,-8 h 24 c 3.000004,0 7,-4 7,-7 V 19 c 0,-5.000013 -9,-7.5 -18,-7.5 z m 20,20.5 v 11 c 0,3 -5,8 -8,8 h -24 c -3.000004,0 -7,4 -7,7 v 23 c 0,10.000025 36,10.000025 36,0 V 70 h -18 v -2 h 29 c 11.000001,0 10.999997,-36 0,-36 z"
       transform="matrix(0.17786186,0,0,0.17786186,4.8652403,275.40689)"
       id="path952"
       inkscape:connector-curvature="0" />
    <path
       style="opacity:1;fill:url(#linearGradient940);fill-opacity:1;stroke:none;stroke-width:0.35572371;stroke-opacity:1"
       d="m 13.491541,280.38702 h -3.201514 v -1.95647 c 0,-1.77862 6.403027,-1.77862 6.403027,0 v 4.09082 c 0,0.53358 -0.711446,1.24503 -1.245033,1.24503 h -4.268684 c -0.533586,0 -1.4228951,0.88931 -1.4228951,1.42289 v 1.95648 H 8.333547 c -1.9564804,0 -1.9564804,-6.40302 1e-7,-6.40302 h 5.1579939 z"
       id="path898"
       inkscape:connector-curvature="0"
       sodipodi:nodetypes="ccccccccccccc" />
    <circle
       style="opacity:1;fill:#ffffff;fill-opacity:1;stroke:none;stroke-width:0.35572371;stroke-opacity:1"
       id="path902"
       cx="11.712922"
       cy="278.96411"
       r="0.71144742" />
    <path
       sodipodi:nodetypes="ccccccccccccc"
       inkscape:connector-curvature="0"
       id="path908"
       d="m 13.313679,287.50151 h 3.201513 v 1.95646 c 0,1.77863 -6.403027,1.77863 -6.403027,0 v -4.09081 c 0,-0.53358 0.711448,-1.24503 1.245034,-1.24503 h 4.268684 c 0.533585,0 1.422895,-0.88931 1.422895,-1.4229 v -1.95648 h 1.422895 c 1.95648,0 1.95648,6.40302 -10e-7,6.40302 h -5.157993 z"
       style="opacity:1;fill:url(#linearGradient932);fill-opacity:1;stroke:none;stroke-width:0.35572371;stroke-opacity:1" />
    <circle
       r="0.71144742"
       cy="-288.92438"
       cx="-15.092298"
       id="circle910"
       style="opacity:1;fill:#ffffff;fill-opacity:1;stroke:none;stroke-width:0.35572371;stroke-opacity:1"
       transform="scale(-1)" />
  </g>
</svg>
