<?xml version="1.0" encoding="UTF-8" standalone="no"?>
<svg
   xmlns:dc="http://purl.org/dc/elements/1.1/"
   xmlns:cc="http://creativecommons.org/ns#"
   xmlns:rdf="http://www.w3.org/1999/02/22-rdf-syntax-ns#"
   xmlns:svg="http://www.w3.org/2000/svg"
   xmlns="http://www.w3.org/2000/svg"
   xmlns:sodipodi="http://sodipodi.sourceforge.net/DTD/sodipodi-0.dtd"
   xmlns:inkscape="http://www.inkscape.org/namespaces/inkscape"
   viewBox="0 0 600 600"
   version="1.1"
   id="svg8"
   sodipodi:docname="webpack.svg"
   inkscape:version="1.0.2 (e86c870879, 2021-01-15)">
  <metadata
     id="metadata14">
    <rdf:RDF>
      <cc:Work
         rdf:about="">
        <dc:format>image/svg+xml</dc:format>
        <dc:type
           rdf:resource="http://purl.org/dc/dcmitype/StillImage" />
        <dc:title />
      </cc:Work>
    </rdf:RDF>
  </metadata>
  <defs
     id="defs12" />
  <sodipodi:namedview
     pagecolor="#ffffff"
     bordercolor="#666666"
     borderopacity="1"
     objecttolerance="10"
     gridtolerance="10"
     guidetolerance="10"
     inkscape:pageopacity="0"
     inkscape:pageshadow="2"
     inkscape:window-width="1920"
     inkscape:window-height="1020"
     id="namedview10"
     showgrid="false"
     inkscape:pagecheckerboard="true"
     inkscape:zoom="1.3075636"
     inkscape:cx="300"
     inkscape:cy="300"
     inkscape:window-x="0"
     inkscape:window-y="32"
     inkscape:window-maximized="1"
     inkscape:current-layer="svg8"
     inkscape:document-rotation="0" />
  <path
     d="m 466.06505,406.40097 -159.35228,90.24114 v -70.17908 l 99.31865,-54.69391 z m 10.90827,-9.84033 V 207.99251 l -58.27915,33.64019 v 121.28776 z m -343.64864,9.84033 159.35227,90.16485 V 426.38675 L 193.3583,371.76912 Z m -10.90827,-9.84033 V 207.99251 l 58.27914,33.64019 v 121.28776 z m 6.78906,-200.77318 163.47148,-92.45331 v 67.89063 l -104.73464,57.59261 -0.8391,0.45769 z m 340.9025,0 -163.3952,-92.45331 v 67.89063 l 104.65837,57.66889 0.83909,0.45769 z"
     fill="#8ed6fb"
     id="path4"
     style="stroke-width:1" />
  <path
     d="M 292.67695,410.44389 194.73138,356.5128 V 249.79483 l 97.94557,56.52468 z m 14.03582,0 97.94558,-53.85481 V 249.79483 l -97.94558,56.52468 z m -105.42118,-173.00668 98.40327,-54.08366 98.32699,54.08366 -98.32699,56.75351 z"
     fill="#1c78c0"
     id="path6"
     style="stroke-width:1" />
</svg>
